# xmcd
#
# Track frame offsets:
#	150
#	12787
#	23705
#	34800
#	45487
#	57710
#	66505
#	77655
#	86375
#	98635
#	110605
#	120512
#	129400
#	137765
#	148595
#
# Disc length: 2116 seconds
#
# Revision: 3
# Processed by: cddbd v1.5.2PL0 Copyright (c) Steve Scherf et al.
# Submitted via: EasyCDDAExtractor 16.0.6.1
#
DISCID=c608420f
DTITLE=Johnny Cash - Country Boy
DYEAR=2000
DGENRE=Country
TTITLE0=Folsom Prison Blues
TTITLE1=Cry! Cry! Cry!
TTITLE2=Oh, Lonesome Me
TTITLE3=Train Of Love
TTITLE4=I Walk The Line
TTITLE5=Katy Too
TTITLE6=Mean Eyed Cat
TTITLE7=Two Timin' Woman
TTITLE8=Next In Line
TTITLE9=Goodnight Irene
TTITLE10=Hey Porter
TTITLE11=Life Goes On
TTITLE12=Country Boy
TTITLE13=Belshazzar
TTITLE14=You Win Again
EXTD=
EXTT0=
EXTT1=
EXTT2=
EXTT3=
EXTT4=
EXTT5=
EXTT6=
EXTT7=
EXTT8=
EXTT9=
EXTT10=
EXTT11=
EXTT12=
EXTT13=
EXTT14=
PLAYORDER=
